<svg xmlns="http://www.w3.org/2000/svg" width="1224" height="464" viewBox="0 0 1224 464" id="svg65" fill="none">
  <metadata id="metadata69"/>

  <defs id="defs63">
    <linearGradient id="paint0_linear" x1="1320" y1="-387" x2="955.4" y2="418.3" gradientUnits="userSpaceOnUse">
      <stop stop-color="#3A9EEA" id="stop55"/>
      <stop offset="1" stop-color="#005EA6" id="stop57"/>
    </linearGradient>
    <clipPath id="clip0">
      <rect width="1320" height="464" id="rect60" fill="white"/>
    </clipPath>
    <clipPath id="wow">
    <path d="M258.4 0C424 222.9 953.8 376.4 1100.4 401.4 1199.8 418.4 1270 411.5 1320 392 1320 338 1320 1 1320 1 979.3 0.7 556.3 0 258.4 0Z" id="path2" style="fill:#000;opacity:0.2"/>
    <path d="M302.3 0.9C401.3 0.9 1121.3 0 1320 0 1320 50 1320 164.1 1320 196c0 46 193.8 255-304.6 199.2C768.8 367.6 630.8 215 503.7 189 402.7 168.3 281 106.9 302.3 0.9Z" id="path4" style="fill:#000;opacity:0.06"/>
    <path d="m924.8 402.9c2.6 0.3 4.9-1.6 5.1-4.1 0.3-2.6-1.6-4.9-4.1-5.1-2.6-0.3-4.9 1.6-5.1 4.1-0.3 2.6 1.6 4.9 4.1 5.1z" id="path6" style="fill:#000;opacity:0.4;stroke:#41b783"/>
    <path d="m846.9 393.1c1.9 0.2 3.7-1.2 3.9-3.1 0.2-1.9-1.2-3.7-3.1-3.9-1.9-0.2-3.7 1.2-3.9 3.1-0.2 1.9 1.2 3.7 3.1 3.9z" id="path8" style="fill:#000;opacity:0.4;stroke:#41b783"/>
    <path d="m1130.2 413.4c3.4 0.4 6.5-2.1 6.9-5.5 0.4-3.4-2.1-6.5-5.5-6.9-3.4-0.4-6.5 2.1-6.9 5.5-0.4 3.4 2.1 6.5 5.5 6.9z" id="path10" style="fill:#000;opacity:0.8;stroke:#41b783"/>
    <path d="m753.5 340.5c4.4 0.5 8.3-2.7 8.8-7.1 0.5-4.4-2.7-8.3-7.1-8.8-4.4-0.5-8.3 2.7-8.8 7.1-0.5 4.4 2.7 8.3 7.1 8.8z" id="path12" style="fill:#000;opacity:0.6;stroke:#41b783"/>
    <path d="m1057.4 394.7c5.5 0.6 10.5-3.4 11.1-8.9 0.6-5.5-3.4-10.5-8.9-11.1-5.5-0.6-10.5 3.4-11.1 8.9-0.6 5.5 3.4 10.5 8.9 11.1z" id="path14" style="fill:#000;stroke:#41b783"/>
    <path d="m878.1 384.5c6.8 0.8 12.9-4.1 13.7-10.9 0.8-6.8-4.1-12.9-10.9-13.7-6.8-0.8-12.9 4.1-13.7 10.9-0.8 6.8 4.1 12.9 10.9 13.7z" id="path16" style="fill:#000;opacity:0.8;stroke:#41b783"/>
    <path d="m1169.6 398.4c7.9 0.9 15-4.8 15.8-12.7 0.9-7.9-4.8-15-12.7-15.8-7.9-0.9-15 4.8-15.8 12.7-0.9 7.9 4.8 15 12.7 15.8z" id="path18" style="fill:#000;stroke:#41b783"/>
    <path d="m962.9 391.3c13.6 1.5 25.8-8.3 27.3-21.9 1.5-13.6-8.3-25.8-21.9-27.3-13.6-1.5-25.8 8.3-27.3 21.9-1.5 13.6 8.3 25.8 21.9 27.3z" id="path20" style="fill:#000;stroke:#41b783"/>
    <path d="m814.3 343.6c13.6 1.5 25.8-8.3 27.3-21.9 1.5-13.6-8.3-25.8-21.9-27.3-13.6-1.5-25.8 8.3-27.3 21.9-1.5 13.6 8.3 25.8 21.9 27.3z" id="path22" style="fill:#000;stroke:#41b783"/>
    <path d="m551.4 265.6c2.3 1.1 5.1 0 6.2-2.3 1.1-2.3 0-5.1-2.3-6.2-2.3-1.1-5.1 0-6.2 2.3-1.1 2.3 0 5.1 2.3 6.2z" id="path24" style="fill:#000;opacity:0.4;stroke:#41b783"/>
    <path d="m494.4 229.5c1.8 0.8 3.8 0 4.6-1.7 0.8-1.8 0-3.8-1.7-4.6-1.8-0.8-3.8 0-4.6 1.7-0.8 1.8 0 3.8 1.7 4.6z" id="path26" style="fill:#000;opacity:0.4;stroke:#41b783"/>
    <path d="m657 287.3c4 1.8 8.7 0.1 10.6-4 1.8-4 0.1-8.7-4-10.6-4-1.8-8.7-0.1-10.6 4-1.8 4-0.1 8.7 4 10.6z" id="path28" style="fill:#000;opacity:0.8;stroke:#41b783"/>
    <path d="m478 200.9c4 1.8 8.7 0.1 10.6-4 1.8-4 0.1-8.7-4-10.6-4-1.8-8.7-0.1-10.6 4-1.8 4-0.1 8.7 4 10.6z" id="path30" style="fill:#000;opacity:0.6;stroke:#41b783"/>
    <path d="m601 278.7c6.7 3 14.6 0.1 17.6-6.6 3-6.7 0.1-14.6-6.6-17.6-6.7-3-14.6-0.1-17.6 6.6-3 6.7-0.1 14.6 6.6 17.6z" id="path32" style="fill:#000;opacity:0.8;stroke:#41b783"/>
    <path d="m526.7 231.1c6.2 2.8 13.5 0.1 16.4-6.1 2.8-6.2 0.1-13.5-6.1-16.4-6.2-2.8-13.5-0.1-16.4 6.1-2.8 6.2-0.1 13.5 6.1 16.4z" id="path34" style="fill:#000;opacity:0.8;stroke:#41b783"/>
    <path d="m699.7 283.4c10.4 4.7 22.6 0.1 27.3-10.2 4.7-10.4 0.1-22.6-10.2-27.3-10.4-4.7-22.6-0.1-27.3 10.2-4.7 10.4-0.1 22.6 10.2 27.3z" id="path36" style="fill:#000;stroke:#41b783"/>
    <path d="m576.6 242.5c12.4 5.7 27.1 0.2 32.8-12.3 5.7-12.4 0.2-27.1-12.3-32.8-12.4-5.7-27.1-0.2-32.8 12.3-5.7 12.4-0.2 27.1 12.3 32.8z" id="path38" style="fill:#000;stroke:#41b783"/>
    <path d="m478.8 172.3c12.4 5.7 27.1 0.2 32.8-12.3 5.7-12.4 0.2-27.1-12.3-32.8-12.4-5.7-27.1-0.2-32.8 12.3-5.7 12.4-0.2 27.1 12.3 32.8z" id="path40" style="fill:#000;stroke:#41b783"/>
    <path d="m1320-64c0 0 0 349.1 0 456-449.2 0-845.8-180.6-1082.5-456 125.6 0 1082.5 0 1082.5 0z" id="path42" fill="#000"/>
    <path d="m1320-64c0 0 0 349.1 0 456-449.2 0-845.8-180.6-1082.5-456 125.6 0 1082.5 0 1082.5 0z" id="path44" fill="#000"/>
    <mask id="mask0" mask-type="alpha" maskUnits="userSpaceOnUse" x="237" y="-64" width="1084" height="456">
      <path d="m1320-64c0 0 0 349.1 0 456-449.2 0-845.8-180.6-1082.5-456 125.6 0 1082.5 0 1082.5 0z" id="path46" fill="#005ea6"/>
    </mask>
   </clipPath>
  </defs>
</svg>